# xmcd CD database file
#
# Track frame offsets:
#	150
#	16872
#	36275
#
# Disc length: 1004 seconds
#
# Revision: 0
# Processed by: cddbd v1.5.2PL0 Copyright (c) Steve Scherf et al.
# Submitted via: CDex 1.70beta2
#
DISCID=1903ea03
DTITLE=Jah Wobble - I Offer You Everything
DYEAR=1998
DGENRE=New Age
TTITLE0=I Offer You Everything (Radio Edit)
TTITLE1=Il Jevedro Il Oblanco (Radio Edit)
TTITLE2=Train
EXTD=YEAR: 1998
EXTT0=
EXTT1=
EXTT2=
PLAYORDER=
